<svg xmlns="http://www.w3.org/2000/svg" viewBox="0 0 512 512">
  <path d="M 90 40 L 422 40 C 440 40 452 52 452 70 L 452 280 C 452 400 340 480 256 500 C 172 480 60 400 60 280 L 60 70 C 60 52 72 40 90 40 Z" fill="#F26722" />
  <path d="M 180 140 L 310 140 L 310 190 L 240 190 L 240 250 L 310 250 L 310 300 L 180 300 Z" fill="#FFFFFF" />
  <rect x="290" y="200" width="40" height="40" rx="4" fill="#FFFFFF" />
  <path d="M 210 140 L 210 100 C 210 85 220 75 235 75 L 275 75 C 290 75 300 85 300 100 L 300 140 L 265 140 L 265 105 L 245 105 L 245 140 Z" fill="#FFFFFF" />
  <rect x="156" y="300" width="200" height="24" rx="6" fill="#FFFFFF" />
  <g stroke="#FFFFFF" stroke-width="28" stroke-linecap="round" fill="none">
    <path d="M 256 324 L 256 460" />
    <path d="M 210 324 L 130 460" />
    <path d="M 302 324 L 382 460" />
  </g>
</svg>
